<svg id="Layer_1" xmlns="http://www.w3.org/2000/svg" x="0" y="0" viewBox="0 0 48 48" xml:space="preserve"
  role="img" class="ManuscriptBlockRedesign_block-controls-icon__O8mTW">
  <path
    d="M15 7.8c0-.4.4-.8.8-.8h24.4c.4 0 .8.4.8.8v24.4c0 .4-.4.8-.8.8H37V15.8c0-2.7-2.2-4.8-4.8-4.8H15V7.8zM11 11V7.8C11 5.2 13.2 3 15.8 3h24.4C42.8 3 45 5.2 45 7.8v24.4c0 2.7-2.2 4.8-4.8 4.8H37v3.2c0 2.7-2.2 4.8-4.8 4.8H7.8C5.2 45 3 42.8 3 40.2V15.8C3 13.2 5.2 11 7.8 11H11zm-4 4.8c0-.4.4-.8.8-.8h24.4c.4 0 .8.4.8.8v24.4c0 .4-.4.8-.8.8H7.8c-.4 0-.8-.4-.8-.8V15.8z"
    style="fill-rule: evenodd; clip-rule: evenodd"></path>
</svg>