<svg id="Layer_1" xmlns="http://www.w3.org/2000/svg" x="0" y="0" viewBox="0 0 48 48" xml:space="preserve"
  role="img" class="ManuscriptBlockRedesign_block-controls-icon__O8mTW">
  <path
    d="M17.5 3c.4-.6 1-1 1.8-1h9.5c.7 0 1.4.4 1.8 1.1L33.2 8H44c1.1 0 2 .9 2 2s-.9 2-2 2h-3v32c0 1.1-.9 2-2 2H9c-1.1 0-2-.9-2-2V12H4c-1.1 0-2-.9-2-2s.9-2 2-2h10.8l2.7-5zm1.9 5h9.3l-1.1-2h-7.1l-1.1 2zM11 12v30h26V12H11zm19 8c0-1.1-.9-2-2-2s-2 .9-2 2v13c0 1.1.9 2 2 2s2-.9 2-2V20zm-10-2c1.1 0 2 .9 2 2v13c0 1.1-.9 2-2 2s-2-.9-2-2V20c0-1.1.9-2 2-2z"
    style="fill-rule: evenodd; clip-rule: evenodd"></path>
</svg>