<svg id="Layer_1" xmlns="http://www.w3.org/2000/svg" x="0" y="0" viewBox="0 0 48 48" xml:space="preserve"
  role="img"
  class="ManuscriptBlockRedesign_block-controls-icon--grab__FPkzS ManuscriptBlockRedesign_fill--dark-green__P9RIu">
  <path
    d="M18 16c0 1.1.9 2 2 2s2-.9 2-2-.9-2-2-2-2 .9-2 2zm4 8c0-1.1-.9-2-2-2s-2 .9-2 2 .9 2 2 2 2-.9 2-2zm-2 6c1.1 0 2 .9 2 2s-.9 2-2 2-2-.9-2-2 .9-2 2-2zm6-14c0 1.1.9 2 2 2s2-.9 2-2-.9-2-2-2-2 .9-2 2zm4 8c0-1.1-.9-2-2-2s-2 .9-2 2 .9 2 2 2 2-.9 2-2zm-2 6c1.1 0 2 .9 2 2s-.9 2-2 2-2-.9-2-2 .9-2 2-2z"
    style="fill-rule: evenodd; clip-rule: evenodd"></path>
</svg>