<svg id="Layer_1" xmlns="http://www.w3.org/2000/svg" x="0" y="0" viewBox="0 0 48 48" xml:space="preserve"
  role="img" class="ManuscriptBlockRedesign_block-icon__WI7hr ManuscriptBlockRedesign_bg--green-gradient__wwyxV">
  <path
    d="M31 6c0-1.1.9-2 2-2h6c2.8 0 5 2.2 5 5v6c0 1.1-.9 2-2 2s-2-.9-2-2V9c0-.6-.4-1-1-1h-6c-1.1 0-2-.9-2-2zM8 33c0-1.1-.9-2-2-2s-2 .9-2 2v6c0 2.8 2.2 5 5 5h6c1.1 0 2-.9 2-2s-.9-2-2-2H9c-.6 0-1-.4-1-1v-6zm36 0c0-1.1-.9-2-2-2s-2 .9-2 2v6c0 .6-.4 1-1 1h-6c-1.1 0-2 .9-2 2s.9 2 2 2h6c2.8 0 5-2.2 5-5v-6zM8 9c0-.6.4-1 1-1h6c1.1 0 2-.9 2-2s-.9-2-2-2H9C6.2 4 4 6.2 4 9v6c0 1.1.9 2 2 2s2-.9 2-2V9zm14 8v18c0 1.1.9 2 2 2s2-.9 2-2V17h5c1.1 0 2-.9 2-2s-.9-2-2-2H17c-1.1 0-2 .9-2 2s.9 2 2 2h5z"
    style="fill-rule: evenodd; clip-rule: evenodd"></path>
</svg>